<?xml version="1.0" standalone="no"?>
<!DOCTYPE svg PUBLIC "-//W3C//DTD SVG 20010904//EN"
 "http://www.w3.org/TR/2001/REC-SVG-20010904/DTD/svg10.dtd">
<svg version="1.0" xmlns="http://www.w3.org/2000/svg"
 width="16.000000pt" height="16.000000pt" viewBox="0 0 16.000000 16.000000"
 preserveAspectRatio="xMidYMid meet">
<metadata>
Created by potrace 1.11, written by Peter Selinger 2001-2013
</metadata>
<g transform="translate(0.000000,16.000000) scale(0.001600,-0.001600)"
fill="#000000" stroke="none">
<path d="M4467 8464 c-1 -1 -38 -5 -82 -8 -104 -9 -141 -13 -190 -20 -22 -3
-60 -8 -85 -11 -25 -3 -52 -8 -60 -10 -8 -2 -36 -6 -61 -9 -25 -4 -93 -15
-150 -26 -108 -20 -112 -21 -194 -40 -27 -6 -61 -14 -75 -16 -14 -3 -52 -12
-85 -21 -33 -8 -64 -16 -70 -17 -5 -1 -35 -10 -66 -19 -78 -23 -120 -54 -136
-102 -23 -65 -19 -314 7 -450 5 -27 12 -66 15 -85 10 -60 36 -171 67 -285 16
-60 31 -117 33 -125 21 -89 146 -461 278 -826 123 -339 257 -759 257 -804 0
-27 -44 24 -125 145 -48 72 -126 183 -174 248 -47 66 -93 129 -101 141 -22 32
-176 234 -400 526 -360 469 -509 677 -625 872 -39 65 -122 239 -137 286 -9 29
-17 41 -27 37 -11 -4 -239 -134 -299 -170 -115 -69 -369 -251 -456 -327 l-39
-34 94 -79 c216 -181 499 -379 934 -653 434 -273 822 -538 970 -663 182 -153
333 -294 325 -302 -3 -3 -23 3 -45 13 -101 45 -143 62 -335 138 -318 126 -499
191 -840 306 -338 113 -829 265 -910 281 -8 2 -15 4 -15 5 0 1 -7 3 -15 5 -8
2 -73 20 -145 40 -149 42 -269 74 -303 81 -13 2 -49 12 -80 20 -32 8 -67 17
-80 20 -13 3 -69 16 -124 29 -56 13 -104 22 -108 20 -4 -2 -24 -30 -45 -62
-21 -32 -46 -69 -55 -83 -94 -140 -286 -590 -326 -762 -9 -39 -12 -55 -19 -96
l-7 -44 58 6 c33 3 91 8 129 11 39 3 90 8 115 10 25 3 86 7 135 10 50 3 106 8
125 10 19 2 87 7 150 10 63 4 138 8 165 10 53 4 223 13 365 20 504 25 1169 25
1555 0 150 -10 241 -16 270 -20 17 -2 57 -7 90 -10 33 -3 71 -8 85 -10 14 -2
45 -6 70 -9 64 -7 121 -16 150 -22 13 -3 38 -7 55 -10 16 -2 41 -6 55 -9 14
-4 39 -8 55 -11 17 -3 45 -10 63 -16 57 -17 45 -2 -13 17 -54 19 -55 19 -50
55 22 179 22 643 0 905 -2 22 -6 94 -10 160 -4 66 -9 138 -11 160 -22 243 -21
609 2 780 11 80 57 271 81 340 86 237 237 414 448 524 l60 31 -43 -2 c-23 -1
-44 -3 -45 -4z"/>
<path d="M5837 8394 c-1 -1 -31 -4 -67 -7 -145 -13 -285 -55 -450 -135 -433
-210 -702 -593 -839 -1195 -17 -72 -42 -202 -56 -287 -14 -85 -28 -166 -30
-180 -2 -14 -12 -74 -20 -135 -9 -60 -18 -119 -19 -130 -2 -11 -6 -45 -10 -75
-4 -30 -9 -62 -11 -70 -2 -8 -7 -40 -10 -70 -3 -30 -8 -62 -10 -70 -3 -8 -9
-46 -15 -85 -17 -115 -18 -121 -30 -187 -7 -35 -14 -74 -16 -88 -2 -14 -7 -36
-10 -50 -3 -14 -8 -36 -11 -50 -2 -14 -8 -43 -13 -65 -5 -22 -10 -45 -10 -51
0 -6 35 -19 78 -29 42 -9 93 -21 112 -26 19 -5 41 -9 48 -9 27 0 140 285 288
724 130 386 216 619 287 776 163 361 246 494 418 670 270 275 610 462 989 542
89 19 136 22 310 22 154 0 223 -4 279 -17 41 -9 76 -15 78 -13 5 5 -247 100
-377 143 -111 36 -341 98 -400 107 -19 3 -48 8 -65 11 -61 12 -77 14 -143 21
-61 6 -269 13 -275 8z"/>
<path d="M7045 7739 c-27 -4 -75 -10 -105 -14 -76 -10 -228 -50 -330 -87 -370
-134 -734 -402 -961 -708 -164 -221 -297 -454 -519 -905 -65 -132 -132 -271
-149 -308 -18 -38 -63 -133 -101 -212 l-68 -144 -74 4 c-40 3 -88 7 -106 10
-31 6 -205 -14 -317 -35 -70 -13 -103 -19 -155 -26 -25 -3 -48 -8 -51 -10 -3
-2 -19 -6 -36 -8 -16 -3 -65 -13 -109 -21 -43 -9 -88 -18 -99 -20 -32 -5 -204
-42 -280 -60 -38 -9 -79 -19 -90 -21 -40 -8 -62 -13 -168 -38 -59 -14 -118
-28 -130 -30 -12 -3 -69 -17 -127 -31 -58 -15 -113 -28 -123 -30 -10 -3 -27
-7 -37 -10 -10 -3 -27 -8 -37 -10 -10 -2 -38 -8 -63 -14 -25 -7 -52 -13 -60
-15 -8 -2 -35 -9 -60 -16 -25 -7 -52 -13 -60 -15 -8 -2 -87 -22 -175 -45 -88
-22 -171 -43 -185 -46 -14 -3 -59 -14 -100 -25 -41 -11 -82 -22 -90 -24 -8 -2
-51 -13 -95 -25 -44 -12 -88 -23 -98 -25 -10 -2 -27 -7 -37 -10 -10 -3 -27 -7
-37 -9 -10 -2 -65 -16 -123 -31 -58 -15 -112 -28 -120 -30 -8 -2 -35 -8 -60
-15 -25 -7 -52 -14 -60 -15 -8 -2 -80 -20 -160 -40 -79 -20 -151 -38 -160 -40
-8 -2 -35 -8 -60 -15 -25 -7 -53 -14 -63 -16 -10 -2 -27 -6 -37 -9 -10 -3 -27
-8 -37 -10 -10 -2 -106 -24 -213 -49 -107 -24 -206 -47 -220 -50 -128 -25
-130 -25 -123 -59 8 -43 55 -194 88 -287 92 -252 220 -503 348 -678 44 -61 16
-58 237 -22 90 15 310 66 450 104 168 46 540 187 940 356 102 43 266 112 365
153 99 41 205 86 235 100 30 14 84 38 120 54 322 145 844 411 1235 628 131 73
406 231 453 261 29 19 54 34 56 34 4 0 111 66 429 262 26 16 47 32 47 35 0 3
-13 3 -29 1 l-29 -4 18 40 c10 23 35 77 56 121 21 44 38 82 39 85 11 32 181
377 236 478 233 423 471 694 757 860 314 183 614 263 962 256 184 -3 257 -13
456 -60 123 -29 346 -113 452 -171 23 -13 63 -34 88 -49 211 -116 433 -303
583 -489 31 -38 58 -72 62 -75 30 -27 219 -370 219 -398 0 -5 8 -26 19 -48 55
-114 143 -421 176 -611 15 -83 19 -116 35 -273 8 -78 5 -436 -3 -480 -3 -14
-8 -52 -11 -85 -8 -78 -12 -103 -30 -205 -20 -111 -20 -109 -51 -225 -15 -55
-28 -107 -30 -115 -13 -58 -119 -354 -157 -438 -61 -136 56 55 150 243 87 176
189 449 207 554 3 19 8 37 10 41 4 7 12 44 21 95 3 17 9 46 14 65 5 19 12 60
15 90 3 30 8 62 10 70 9 32 18 201 18 340 1 195 -7 295 -39 485 -14 83 -58
262 -86 351 -17 54 -32 101 -33 104 -3 20 -94 233 -133 310 -199 398 -461 711
-887 1059 -88 72 -320 211 -452 272 -85 39 -292 113 -343 123 -14 2 -47 9 -75
16 -27 6 -68 14 -90 16 -22 3 -47 7 -55 10 -24 9 -350 12 -405 3z"/>
<path d="M7217 6724 c-1 -1 -38 -5 -82 -8 -218 -16 -450 -94 -620 -209 -285
-194 -549 -544 -664 -883 -55 -161 -55 -158 22 -129 157 58 154 56 175 99 84
172 400 461 612 558 222 102 473 122 675 53 302 -103 534 -391 630 -779 30
-121 43 -253 43 -411 0 -159 -9 -251 -33 -375 -3 -14 -7 -34 -9 -45 -55 -286
-296 -802 -565 -1210 -112 -171 -299 -424 -392 -530 -14 -16 -61 -70 -104
-120 -135 -155 -475 -490 -605 -595 -24 -19 -48 -40 -54 -45 -57 -56 -390
-304 -495 -370 -9 -6 -36 -23 -61 -39 -25 -16 -67 -43 -95 -61 -27 -17 -72
-46 -100 -64 l-50 -32 50 5 c28 3 79 8 115 11 110 10 178 19 390 51 25 3 54 8
65 9 36 5 178 33 245 49 36 8 76 17 90 19 76 14 353 94 495 143 55 19 107 36
116 38 39 10 250 101 328 142 90 48 207 123 263 171 102 86 245 244 401 443
29 37 139 193 195 276 204 304 411 721 525 1054 31 92 77 242 82 271 2 11 7
29 10 39 6 20 13 50 21 90 2 14 11 54 18 90 8 36 18 90 21 120 4 30 8 57 10
60 7 11 19 234 19 345 0 267 -42 463 -151 709 -252 571 -827 1010 -1376 1051
-123 10 -157 11 -160 9z"/>
<path d="M6522 5824 c-66 -17 -113 -41 -232 -118 -52 -34 -114 -73 -138 -86
-31 -18 -41 -28 -37 -41 4 -10 6 -44 6 -76 -1 -261 -342 -750 -872 -1248 -147
-138 -176 -164 -338 -298 -773 -646 -1746 -1187 -2552 -1422 -198 -58 -368
-88 -501 -89 -32 -1 -58 -2 -58 -4 0 -6 207 -137 312 -198 224 -129 618 -312
813 -378 150 -51 237 -65 385 -61 226 5 555 89 828 211 29 13 55 24 58 24 14
0 334 165 444 230 261 152 652 430 845 601 17 14 71 61 120 104 179 156 521
508 675 695 33 41 69 85 80 97 77 94 226 315 308 459 164 288 298 654 328 890
20 165 9 347 -28 452 -68 193 -260 303 -446 256z"/>
</g>
</svg>
